<?xml version="1.0" standalone="no"?><!DOCTYPE svg PUBLIC "-//W3C//DTD SVG 1.1//EN" "http://www.w3.org/Graphics/SVG/1.1/DTD/svg11.dtd"><svg t="1675664089215" class="icon" viewBox="0 0 1024 1024" version="1.1" xmlns="http://www.w3.org/2000/svg" p-id="7591" xmlns:xlink="http://www.w3.org/1999/xlink" width="200" height="200"><path d="M779.52 111.936c51.2 29.568 56.32 107.136 28.352 213.12l-61.888-16.256c21.056-79.872 17.6-132.16 1.536-141.44-14.4-8.32-55.36 9.856-107.968 58.752-36.8 34.176-75.776 79.808-113.6 132.928h5.44c258.688 0 467.136 64.064 467.136 165.824 0 59.136-64.64 102.4-170.432 131.2l-16.832-61.76c79.68-21.76 123.264-50.816 123.264-69.44 0-16.64-36.224-42.944-104.896-64.064-77.76-23.936-184.32-37.76-298.24-37.76-16.384 0-32.64 0.256-48.64 0.768a1368.192 1368.192 0 0 0-62.464 110.912c7.296 13.696 14.912 27.392 22.848 41.088 56.96 98.752 122.24 184.064 181.888 239.424 52.608 48.896 93.504 67.136 107.904 58.816 15.616-9.024 19.456-59.072-0.128-136.128-12.352-48.64-32.896-104.32-60.16-162.56l57.984-27.136c28.864 61.696 50.816 121.152 64.192 173.952 26.24 102.976 20.48 178.24-29.888 207.296-88.128 50.88-247.872-97.536-377.216-321.664l-0.768-1.152a831.36 831.36 0 0 0-45.696 136.128c-16 70.016-11.328 114.56 3.072 122.88 15.616 8.96 60.928-12.736 117.824-68.224l44.672 45.824c-76.16 74.24-144.192 106.88-194.496 77.76-74.56-43.008-51.2-201.856 36.16-385.472-15.936-31.616-30.08-62.656-42.368-92.672-26.368 5.12-50.88 11.072-73.024 17.92-68.672 21.12-104.896 47.424-104.896 64.064 0 18.048 41.472 46.4 117.952 67.968l-17.344 61.568c-102.272-28.8-164.608-71.424-164.608-129.536 0-65.92 87.424-115.968 219.264-143.104-42.432-127.744-42.752-228.48 14.336-261.44 51.2-29.568 120.96 4.8 198.784 81.984l-45.056 45.44c-58.624-58.112-105.6-81.28-121.728-72-14.4 8.32-19.136 52.864-3.072 122.88 5.12 22.592 12.16 46.784 20.992 72.128 31.36-4.224 64.448-7.424 98.944-9.408 119.808-182.592 254.592-294.592 332.8-249.408zM380.416 431.488l-8.96 1.088c4.352 10.304 8.96 20.736 13.76 31.296 5.504-10.112 11.2-20.224 17.024-30.336l2.688-4.672c-8.256 0.768-16.448 1.664-24.512 2.56z" fill="#F2294E" p-id="7592"></path></svg>